<svg width="491" height="490" viewBox="0 0 491 490" fill="none" xmlns="http://www.w3.org/2000/svg">
<path d="M244.953 244.654L489.607 244.654L434.805 189.852L299.756 189.852L299.756 50.888L244.953 0L244.953 244.654Z" fill="#27AE96"/>
<path fill-rule="evenodd" clip-rule="evenodd" d="M244.954 244.654L244.954 490L367.973 367.673L490.3 244.654L244.954 244.654ZM300.117 301.934H356.21L329.956 328.188L300.117 358.027V301.934Z" fill="#CCE780"/>
<path fill-rule="evenodd" clip-rule="evenodd" d="M0.300293 244.654H244.954V489.308L191.13 433.527V335.665L142.2 385.575L104.034 346.43L151.007 299.457H56.0814L0.300293 244.654Z" fill="#C46CA6"/>
<path fill-rule="evenodd" clip-rule="evenodd" d="M244.954 0L244.954 78.2893L188.195 135.049L244.954 191.809V244.654L0.300293 244.654L53.1456 188.873L164.708 189.852L107.948 135.049L244.954 0Z" fill="#7ACCCC"/>
</svg>
