<svg width="56" height="55" viewBox="0 0 56 55" fill="none" xmlns="http://www.w3.org/2000/svg">
<path d="M27.8438 27.4979L55.3416 27.4979L49.1822 21.3383L34.0033 21.3383L34.0033 5.71956L27.8438 0L27.8438 27.4979Z" fill="#606060"/>
<path fill-rule="evenodd" clip-rule="evenodd" d="M27.7704 27.4244L27.7704 55L41.5971 41.2511L55.346 27.4244L27.7704 27.4244ZM33.9704 33.8624H40.2749L37.3242 36.8131L33.9704 40.1669V33.8624Z" fill="#606060"/>
<path fill-rule="evenodd" clip-rule="evenodd" d="M0.346039 27.4979H27.8439V54.9957L21.7944 48.7262V37.7271L16.2948 43.3366L12.0051 38.937L17.2847 33.6574H6.61555L0.346039 27.4979Z" fill="#606060"/>
<path fill-rule="evenodd" clip-rule="evenodd" d="M27.8439 0L27.8439 8.79932L21.4644 15.1788L27.8439 21.5583V27.4979L0.346039 27.4979L6.28558 21.2284L18.8246 21.3383L12.4451 15.1788L27.8439 0Z" fill="#606060"/>
</svg>
