<svg width="100" height="95" viewBox="0 0 100 95" fill="none" xmlns="http://www.w3.org/2000/svg">
<path d="M69.2869 66.3047C62.2557 80.6797 49.9432 90.3516 33.6541 93.5313C31.1565 94.1431 28.5926 94.4423 26.0213 94.4219C16.6463 94.4219 8.05254 90.5156 3.88066 84.1172C-1.7209 75.5938 -3.62715 57.5234 14.8416 44.1562C15.2166 46.1953 15.9822 48.9922 16.49 50.6484C12.8645 53.3419 9.89689 56.8224 7.81035 60.8281C4.37285 67.5781 4.75566 74.3203 8.82598 80.5547C11.6385 84.7578 16.0916 87.3125 21.8182 88.0938C28.9708 88.9991 36.227 87.6326 42.5604 84.1875C52.49 78.9688 59.1072 72.7344 63.4354 64.2109C62.2115 62.9462 61.4871 61.281 61.3963 59.5234C61.3309 57.6374 62.0164 55.8024 63.3024 54.4212C64.5883 53.0401 66.3698 52.2255 68.2557 52.1563H68.5213C70.3556 52.1471 72.1233 52.8434 73.4586 54.1012C74.7938 55.3589 75.5945 57.0819 75.6948 58.9135C75.7952 60.7451 75.1876 62.5452 73.9978 63.9413C72.8079 65.3375 71.1269 66.2228 69.3025 66.4141L69.2869 66.3047ZM91.6854 50.5234C101.224 61.3359 101.482 74.0625 97.7947 81.4453C94.3572 88.1875 85.2947 94.9375 73.1072 94.9375C67.4179 94.8214 61.821 93.4755 56.701 90.9922C58.49 89.7188 61.0291 87.6797 62.4275 86.4062C66.3759 88.1167 70.625 89.025 74.9275 89.0781C82.8182 89.0781 88.7947 85.3906 92.3572 78.6484C94.6463 74.1953 94.7791 68.9766 92.615 63.6328C89.9596 56.9093 85.2344 51.2046 79.1229 47.3437C71.1046 41.9386 61.6521 39.0572 51.9822 39.0703H49.6932C49.1594 40.3033 48.291 41.3623 47.1864 42.1272C46.0818 42.8921 44.7851 43.3325 43.4432 43.3984H43.201C41.3449 43.3756 39.5707 42.6301 38.2555 41.3203C36.9402 40.0104 36.1873 38.2394 36.1568 36.3834C36.1263 34.5274 36.8205 32.7326 38.0921 31.3802C39.3636 30.0278 41.1122 29.2244 42.9666 29.1406H43.2244C44.5167 29.1416 45.7836 29.4987 46.8862 30.1726C47.9888 30.8466 48.8843 31.8113 49.4744 32.9609H51.5135C67.7635 32.9609 82.0291 39.1953 91.6854 50.5234V50.5234ZM27.0369 68.4922C26.9031 67.1949 27.2174 65.8908 27.9275 64.7969C20.8025 52.4531 16.99 36.8047 22.8416 20.5156C27.0369 8.27344 37.5994 0 49.0525 0C61.2713 0 73.9979 10.6953 75.5213 31.3047C73.615 30.6719 70.8338 29.7422 69.1619 29.3984C68.7479 22.6562 63.0525 5.85938 49.5604 6.10938C44.7244 6.24219 37.5994 8.53125 33.9354 13.2344C29.403 18.8486 26.7664 25.7547 26.4041 32.9609C25.5453 42.842 27.8636 52.7392 33.0213 61.2109C33.306 61.1069 33.6095 61.0643 33.9119 61.0859H34.1619C36.0516 61.0518 37.8774 61.7696 39.2378 63.0817C40.5982 64.3937 41.3816 66.1924 41.4158 68.082C41.45 69.9717 40.7321 71.7976 39.4201 73.1579C38.1081 74.5183 36.3094 75.3017 34.4197 75.3359H34.1619C32.3184 75.3294 30.5485 74.6117 29.2212 73.3323C27.8938 72.053 27.1114 70.3108 27.0369 68.4687V68.4922Z" fill="#33534D"/>
</svg>
